<svg width="55" height="55" viewBox="0 0 55 55" fill="none" xmlns="http://www.w3.org/2000/svg">
<rect x="0.0791016" y="0.34082" width="54.0732" height="54.0732" rx="27.0366" fill="#E0E0E0"/>
<path fill-rule="evenodd" clip-rule="evenodd" d="M26.8231 30.1565L26.4981 29.292C26.0648 28.2113 25.9564 28.3193 26.9314 28.9677L29.9647 31.021C31.6979 32.2098 31.373 31.8856 29.423 33.0743L25.5231 35.5599C24.5482 36.2083 24.5482 36.3164 25.0898 35.2357L25.6315 33.9389C23.0315 34.0469 20.3233 34.0469 17.615 33.7227C20.7566 34.3711 21.7316 34.5873 24.6565 34.6953L24.0065 36.5325C66.6885 18.9174 37.9811 21.0788 24.6565 24.645L25.1981 25.5096C25.7398 26.4822 25.8481 26.3741 24.7648 25.9418L21.4066 24.4289C19.4566 23.5644 19.89 23.8886 21.6232 22.3756L24.9815 19.2416C25.8481 18.4852 25.7398 18.3771 25.4148 19.5658L25.0898 20.8627C27.5814 20.3223 30.398 19.782 32.9979 19.6739C29.8563 19.5658 28.773 19.5658 25.8481 19.9981L26.2814 17.9448C6.02372 27.1306 -2.96767 34.5873 26.8231 30.1565Z" fill="#9E9E9E"/>
</svg>
