<svg width="45" height="42" viewBox="0 0 45 42" fill="none" xmlns="http://www.w3.org/2000/svg">
<rect x="0.460205" width="44.0398" height="41.99" rx="9" fill="#008561"/>
<path d="M28.8303 13.7684C28.8303 15.4882 28.1027 17.0096 26.912 18.2003C25.5891 19.5232 23.6708 19.854 23.6708 20.9785C23.6708 22.4999 26.1182 22.0368 28.4665 24.3851C30.021 25.9396 30.9801 27.9901 30.9801 30.3715C30.9801 35.068 27.2097 38.8053 22.4801 38.8053C17.7505 38.8053 13.9801 35.068 13.9801 30.3748C13.9801 27.9901 14.9392 25.9396 16.4937 24.3851C18.842 22.0368 21.2894 22.4999 21.2894 20.9785C21.2894 19.854 19.3712 19.5232 18.0482 18.2003C16.8575 17.0096 16.1299 15.4882 16.1299 13.7022C16.1299 10.2625 18.9412 7.4843 22.3809 7.4843C23.0424 7.4843 23.6377 7.58353 24.1338 7.58353C25.0268 7.58353 25.4898 7.18664 25.4898 6.55823C25.4898 6.19442 25.3245 5.73139 25.3245 5.23528C25.3245 4.11076 26.2836 3.18469 27.4412 3.18469C28.5988 3.18469 29.5249 4.14384 29.5249 5.30142C29.5249 6.52516 28.5657 7.08742 27.8381 7.35201C27.2428 7.55045 26.7797 7.81504 26.7797 8.41037C26.7797 9.53489 28.8303 10.6263 28.8303 13.7684ZM28.1688 30.3748C28.1688 27.1005 25.7544 24.4545 22.4801 24.4545C19.2058 24.4545 16.7914 27.1005 16.7914 30.3748C16.7914 33.616 19.2058 36.295 22.4801 36.295C25.7544 36.295 28.1688 33.6127 28.1688 30.3748ZM26.2175 13.7022C26.2175 11.6185 24.5307 9.8987 22.4801 9.8987C20.4295 9.8987 18.7427 11.6185 18.7427 13.7022C18.7427 15.7859 20.4295 17.5057 22.4801 17.5057C24.5307 17.5057 26.2175 15.7859 26.2175 13.7022Z" fill="white"/>
</svg>
