<svg width="100" height="88" viewBox="0 0 100 88" fill="none" xmlns="http://www.w3.org/2000/svg">
<g id="Frame">
<g id="Group">
<path id="Vector" fill-rule="evenodd" clip-rule="evenodd" d="M33.5554 62.0978L34.4643 63.4399C35.5779 65.1435 35.341 65.1192 35.2646 63.4085L34.9779 58.0433C34.793 54.9591 34.9657 55.658 31.7321 56.1209L25.1177 56.9181C23.4273 57.0852 23.2801 56.9566 25.2008 57.7213L27.4159 58.7433C25.1167 61.1185 22.875 63.7266 21.075 66.7207C22.7919 62.9234 23.3045 61.7272 25.5783 58.7818L22.5373 57.221C69.5684 37.9379 55.1587 62.1574 39.271 70.7447L38.5414 69.194C37.6647 67.5146 37.9016 67.5389 37.5938 69.0967L36.8754 74.1317C36.4393 77.0387 36.3562 76.2355 39.8522 76.3671L46.9016 76.8633C48.6496 76.9292 48.7072 77.1621 46.8186 76.0601L44.7828 74.8295C47.5813 73.0732 50.6488 71.0039 52.9481 68.6287C50.495 71.7828 49.5983 72.826 46.5883 75.1283L49.7444 77.155C17.8739 88.1451 4.79203 75.759 33.5554 62.0978Z" fill="#A3C7F7"/>
<g id="Group 2057">
<path id="Vector_2" d="M32.1426 15.0682C38.4477 14.5707 42.0114 17.5833 43.9304 20.0984C48.481 15.0958 53.1413 11.0882 57.7468 7.93739C49.605 5.72629 38.1461 7.96503 32.1426 15.0682Z" fill="#255AE8"/>
<path id="Vector_3" d="M71.5075 32.7852C66.436 35.0792 60.597 36.9586 53.9903 38.2576C55.1143 41.215 55.7996 45.8583 52.0439 50.9991C61.2001 49.5895 69.1226 40.9386 71.5075 32.7852Z" fill="#255AE8"/>
<path id="Vector_4" d="M73.349 33.3238L74.5213 29.3161L70.7168 31.037C65.7902 33.2655 60.0935 35.1022 53.6201 36.375L51.389 36.8137L52.1968 38.9393C53.1572 41.4663 53.7679 45.3869 50.4947 49.8673L47.7688 53.5985L52.3359 52.8954C57.4068 52.1147 62.0265 49.3536 65.6585 45.7907C69.2911 42.2273 72.055 37.7476 73.349 33.3238Z" fill="#255AE8" stroke="white" stroke-width="3.83732"/>
<path id="Vector_5" d="M46.7257 30.4358L42.833 23.4155L37.0762 23.9683L42.0928 33.0338L47.1369 42.127L50.6185 37.4836L46.7257 30.4358Z" fill="#255AE8"/>
<path id="Vector_6" d="M49.1115 29.1092C49.1115 29.1092 50.9482 32.4258 53.0042 36.1294C82.8027 30.6293 94.3164 13.0511 96.9755 2.16142C86.3665 -1.29343 65.4773 -0.630097 45.2188 22.089C47.2748 25.7925 49.1115 29.1092 49.1115 29.1092ZM63.5858 20.9558C62.8456 19.6015 63.3117 17.8879 64.6549 17.114C65.9982 16.3677 67.6978 16.8376 68.4654 18.1919C69.2056 19.5462 68.7396 21.2598 67.3963 22.0337C66.053 22.7799 64.3534 22.3101 63.5858 20.9558ZM80.2807 11.5586C81.7884 14.2672 80.8289 17.722 78.115 19.2422C75.401 20.7623 72.0018 19.7949 70.494 17.0587C68.9863 14.3501 69.9458 10.8953 72.6597 9.37513C75.3736 7.855 78.7729 8.82235 80.2807 11.5586Z" fill="url(#paint0_linear_366_28999)"/>
</g>
<path id="Vector_7" d="M12.0504 79.6517C6.70131 69.9563 19.6534 54.6557 39.8479 43.2939L34.2584 33.2349C9.64634 47.0811 -4.98864 67.896 1.56254 79.7123C6.13034 87.9231 19.7736 89.6198 35.9412 85.1963C24.6119 87.408 15.3561 85.681 12.0504 79.6517Z" fill="#A3C7F7"/>
</g>
</g>
<defs>
<linearGradient id="paint0_linear_366_28999" x1="46.1832" y1="3.60992" x2="98.6177" y2="8.56153" gradientUnits="userSpaceOnUse">
<stop stop-color="#9C27B0"/>
<stop offset="1" stop-color="#1C44C7"/>
</linearGradient>
</defs>
</svg>
