<svg width="20" height="20" viewBox="0 0 20 20" fill="none" xmlns="http://www.w3.org/2000/svg">
<rect width="20" height="20"/>
<path fill-rule="evenodd" clip-rule="evenodd" d="M19.2005 10.218C19.2005 9.53849 19.1395 8.88509 19.0262 8.25781H10.0005V11.9648H15.1581C14.9359 13.1627 14.2607 14.1777 13.2458 14.8572V17.2618H16.3429C18.155 15.5934 19.2005 13.1366 19.2005 10.218Z" fill="#4285F4"/>
<path fill-rule="evenodd" clip-rule="evenodd" d="M10.0005 19.5818C12.588 19.5818 14.7574 18.7237 16.343 17.2601L13.2458 14.8555C12.3877 15.4305 11.2899 15.7703 10.0005 15.7703C7.50452 15.7703 5.39183 14.0845 4.63823 11.8193H1.43652V14.3023C3.01342 17.4343 6.25433 19.5818 10.0005 19.5818Z" fill="#34A853"/>
<path fill-rule="evenodd" clip-rule="evenodd" d="M4.63801 11.8209C4.44635 11.2459 4.33745 10.6317 4.33745 10.0001C4.33745 9.36845 4.44635 8.75424 4.63801 8.17924V5.69629H1.43631C0.787257 6.99004 0.416992 8.45368 0.416992 10.0001C0.416992 11.5465 0.787257 13.0101 1.43631 14.3039L4.63801 11.8209Z" fill="#FBBC05"/>
<path fill-rule="evenodd" clip-rule="evenodd" d="M10.0005 4.22757C11.4075 4.22757 12.6708 4.71109 13.664 5.66071L16.4127 2.91204C14.753 1.36564 12.5837 0.416016 10.0005 0.416016C6.25433 0.416016 3.01342 2.56355 1.43652 5.69556L4.63823 8.17851C5.39183 5.91336 7.50452 4.22757 10.0005 4.22757Z" fill="#EA4335"/>
</svg>
