<svg width="145" height="70" viewBox="0 0 145 70" fill="none" xmlns="http://www.w3.org/2000/svg">
<g id="Vector">
<path id="Vector_2" fill-rule="evenodd" clip-rule="evenodd" d="M71.5232 45.7106L70.3107 42.4865C68.694 38.4565 68.2899 38.8595 71.9273 41.2775L83.2439 48.9346C89.7105 53.3677 88.498 52.1587 81.2231 56.5918L66.6732 65.8609C63.0357 68.2789 63.0357 68.6819 65.0566 64.6519L67.0774 59.8158C57.3775 60.2188 47.2734 60.2188 37.1693 59.0098C48.89 61.4278 52.5275 62.2339 63.4399 62.6369L61.0149 69.488C220.255 3.79796 113.152 11.8581 63.4399 25.1573L65.4607 28.3813C67.4815 32.0084 67.8857 31.6054 63.8441 29.9934L51.315 24.3513C44.0401 21.1272 45.6567 22.3362 52.1233 16.6942L64.6524 5.00697C67.8857 2.18593 67.4815 1.78292 66.2691 6.21599L65.0566 11.0521C74.3523 9.03703 84.8605 7.022 94.5605 6.619C82.8397 6.21599 78.7981 6.21599 67.8857 7.82802L69.5024 0.170898C-6.07615 34.4264 -39.6217 62.2339 71.5232 45.7106Z" fill="#06186E" fill-opacity="0.17"/>
</g>
</svg>
