<svg width="112" height="32" viewBox="0 0 112 32" fill="none" xmlns="http://www.w3.org/2000/svg">
<g clip-path="url(#clip0_379_27458)">
<path d="M45.7723 10.2549H43.7354V19.4462H49.3744V17.6452H45.7723V10.2549Z" fill="#4845D2"/>
<path d="M49.5684 16.3289C49.5684 18.2914 50.885 19.5955 52.8722 19.5955C54.8471 19.5955 56.1637 18.2914 56.1637 16.3289C56.1637 14.3664 54.8471 13.0498 52.8722 13.0498C50.885 13.0498 49.5684 14.3664 49.5684 16.3289ZM51.4935 16.3164C51.4935 15.3849 52.0401 14.7639 52.8722 14.7639C53.692 14.7639 54.2386 15.3849 54.2386 16.3164C54.2386 17.2605 53.692 17.8815 52.8722 17.8815C52.0401 17.8815 51.4935 17.2605 51.4935 16.3164Z" fill="#4845D2"/>
<path d="M56.4711 16.2299C56.4711 18.1054 57.6884 19.3723 59.4148 19.3723C60.2471 19.3723 60.9674 19.0742 61.3276 18.5899V19.4469C61.3276 20.3039 60.7935 20.8752 59.8496 20.8752C59.005 20.8752 58.4212 20.4778 58.3839 19.7698H56.4463C56.6202 21.4715 57.9368 22.6141 59.7378 22.6141C61.8617 22.6141 63.2032 21.2355 63.2032 19.0494V13.2365H61.4767L61.3773 13.87C61.0295 13.3607 60.2967 13.0254 59.4521 13.0254C57.7132 13.0254 56.4711 14.3295 56.4711 16.2299ZM58.4088 16.1802C58.4088 15.2859 59.005 14.6897 59.7626 14.6897C60.6445 14.6897 61.2904 15.2735 61.2904 16.1802C61.2904 17.087 60.6569 17.708 59.775 17.708C59.0174 17.708 58.4088 17.087 58.4088 16.1802Z" fill="#4845D2"/>
<path d="M63.7617 16.3289C63.7617 18.2914 65.0784 19.5955 67.0658 19.5955C69.0408 19.5955 70.3572 18.2914 70.3572 16.3289C70.3572 14.3664 69.0408 13.0498 67.0658 13.0498C65.0784 13.0498 63.7617 14.3664 63.7617 16.3289ZM65.6868 16.3164C65.6868 15.3849 66.2333 14.7639 67.0658 14.7639C67.8853 14.7639 68.4317 15.3849 68.4317 16.3164C68.4317 17.2605 67.8853 17.8815 67.0658 17.8815C66.2333 17.8815 65.6868 17.2605 65.6868 16.3164Z" fill="#4845D2"/>
<path d="M72.006 12.2674C72.602 12.2674 73.0865 11.783 73.0865 11.1743C73.0865 10.5657 72.602 10.0938 72.006 10.0938C71.3976 10.0938 70.9131 10.5657 70.9131 11.1743C70.9131 11.783 71.3976 12.2674 72.006 12.2674ZM71.0371 19.4465H72.9625V13.2362H71.0371V19.4465Z" fill="#4845D2"/>
<path d="M74.083 22.4272H75.9709V18.8252C76.3309 19.2972 77.1509 19.6201 78.0079 19.6201C79.8583 19.6201 80.9763 18.2041 80.9268 16.2417C80.8767 14.2419 79.7218 13.0371 77.9954 13.0371C77.1134 13.0371 76.2814 13.4221 75.9334 13.9935L75.8339 13.2359H74.083V22.4272ZM76.0079 16.341C76.0079 15.4095 76.6289 14.7885 77.5234 14.7885C78.4298 14.7885 79.0013 15.4219 79.0013 16.341C79.0013 17.2602 78.4298 17.8936 77.5234 17.8936C76.6289 17.8936 76.0079 17.2726 76.0079 16.341Z" fill="#4845D2"/>
<path d="M81.1309 17.4837C81.1803 18.7382 82.1743 19.6076 83.7393 19.6076C85.2422 19.6076 86.2857 18.8127 86.2857 17.5334C86.2857 16.6143 85.7392 16.0057 84.7202 15.7572L83.6153 15.484C83.2178 15.3846 82.9693 15.2852 82.9693 14.9623C82.9693 14.6394 83.2298 14.4282 83.6153 14.4282C84.0498 14.4282 84.3352 14.7139 84.3233 15.1362H86.0497C85.9997 13.8444 85.0188 13.0371 83.6523 13.0371C82.2739 13.0371 81.2429 13.8569 81.2429 15.0989C81.2429 15.9311 81.7024 16.6143 82.9318 16.9372L84.0248 17.2229C84.3477 17.3098 84.4842 17.4589 84.4842 17.67C84.4842 17.9805 84.1988 18.1793 83.7143 18.1793C83.1553 18.1793 82.8573 17.9185 82.8573 17.4837H81.1309Z" fill="#4845D2"/>
<path d="M89.2132 19.6081C89.9712 19.6081 90.7286 19.2603 91.1136 18.7511L91.2381 19.4467H93.0391V13.2363H91.1261V16.4657C91.1261 17.3972 90.8532 17.9065 89.9712 17.9065C89.2877 17.9065 88.8407 17.596 88.8407 16.4409V13.2363H86.9277V17.1364C86.9277 18.6145 87.7477 19.6081 89.2132 19.6081Z" fill="#4845D2"/>
<path d="M96.072 19.4469V16.056C96.072 15.0127 96.6309 14.7146 97.1774 14.7146C97.7859 14.7146 98.1834 15.0872 98.1834 15.8573V19.4469H100.071V16.056C100.071 15.0003 100.618 14.7022 101.164 14.7022C101.773 14.7022 102.183 15.0748 102.183 15.8573V19.4469H104.046V15.3853C104.046 13.9694 103.301 13.0254 101.698 13.0254C100.804 13.0254 100.071 13.4601 99.7483 14.1308C99.3759 13.4601 98.7299 13.0254 97.6989 13.0254C97.0159 13.0254 96.3824 13.3359 96.01 13.8327L95.9355 13.2365H94.1465V19.4469H96.072Z" fill="#4845D2"/>
<path d="M7.34082 15.7801C7.34082 10.7552 11.4144 6.68164 16.4393 6.68164H28.3811C33.4061 6.68164 37.4796 10.7552 37.4796 15.7801V24.8786H16.4393C11.4144 24.8786 7.34082 20.8051 7.34082 15.7801Z" fill="#4845D2"/>
<path d="M28.3813 10.0938H16.4395C13.2989 10.0938 10.7529 12.6397 10.7529 15.7803C10.7529 18.9209 13.2989 21.4669 16.4395 21.4669H28.3813C31.5219 21.4669 34.0678 18.9209 34.0678 15.7803C34.0678 12.6397 31.5219 10.0938 28.3813 10.0938Z" fill="#A5B4FC"/>
<path d="M16.44 18.6231C18.0103 18.6231 19.2832 17.3501 19.2832 15.7798C19.2832 14.2095 18.0103 12.9365 16.44 12.9365C14.8697 12.9365 13.5967 14.2095 13.5967 15.7798C13.5967 17.3501 14.8697 18.6231 16.44 18.6231Z" fill="black"/>
<path d="M15.3021 15.2115C15.6161 15.2115 15.8707 14.9569 15.8707 14.6429C15.8707 14.3288 15.6161 14.0742 15.3021 14.0742C14.988 14.0742 14.7334 14.3288 14.7334 14.6429C14.7334 14.9569 14.988 15.2115 15.3021 15.2115Z" fill="white"/>
<path d="M28.9497 18.6231C30.52 18.6231 31.793 17.3501 31.793 15.7798C31.793 14.2095 30.52 12.9365 28.9497 12.9365C27.3794 12.9365 26.1064 14.2095 26.1064 15.7798C26.1064 17.3501 27.3794 18.6231 28.9497 18.6231Z" fill="black"/>
<path d="M27.8128 15.2115C28.1269 15.2115 28.3815 14.9569 28.3815 14.6429C28.3815 14.3288 28.1269 14.0742 27.8128 14.0742C27.4987 14.0742 27.2441 14.3288 27.2441 14.6429C27.2441 14.9569 27.4987 15.2115 27.8128 15.2115Z" fill="white"/>
</g>
<defs>
<clipPath id="clip0_379_27458">
<rect width="97.2401" height="18.197" fill="white" transform="translate(7.34082 6.68164)"/>
</clipPath>
</defs>
</svg>
