<svg width="112" height="32" viewBox="0 0 112 32" fill="none" xmlns="http://www.w3.org/2000/svg">
<g clip-path="url(#clip0_379_27487)">
<path d="M36.8882 20.7962H43.6848V18.7491H39.3038V11.0381H36.8882V20.7962Z" fill="#2F234F"/>
<path d="M47.7117 19.4321C46.7427 19.4321 46.2377 18.5859 46.2377 17.3167C46.2377 16.0475 46.7427 15.1877 47.7117 15.1877C48.6807 15.1877 49.1993 16.0475 49.1993 17.3167C49.1993 18.5859 48.6807 19.4321 47.7117 19.4321ZM47.7253 21.0152C49.9772 21.0152 51.4512 19.4185 51.4512 17.3167C51.4512 15.2149 49.9772 13.6182 47.7253 13.6182C45.4871 13.6182 43.9858 15.2149 43.9858 17.3167C43.9858 19.4185 45.4871 21.0152 47.7253 21.0152Z" fill="#2F234F"/>
<path d="M55.3492 23.2115C56.3864 23.2115 57.3008 22.9795 57.9149 22.4336C58.4745 21.9286 58.843 21.1644 58.843 20.1135V13.8082H56.7139V14.5589H56.6867C56.2772 13.972 55.6494 13.6035 54.7214 13.6035C52.9881 13.6035 51.7871 15.0502 51.7871 17.0973C51.7871 19.24 53.2474 20.4137 54.8169 20.4137C55.6631 20.4137 56.1953 20.0725 56.6048 19.6085H56.6594V20.3046C56.6594 21.1507 56.2636 21.642 55.3219 21.642C54.5849 21.642 54.2164 21.3281 54.0936 20.9596H51.9372C52.1556 22.42 53.4248 23.2115 55.3492 23.2115ZM55.3355 18.7624C54.503 18.7624 53.9571 18.08 53.9571 17.0291C53.9571 15.9646 54.503 15.2822 55.3355 15.2822C56.2636 15.2822 56.7549 16.0738 56.7549 17.0155C56.7549 17.9981 56.3045 18.7624 55.3355 18.7624Z" fill="#2F234F"/>
<path d="M63.2205 19.4321C62.2515 19.4321 61.7465 18.5859 61.7465 17.3167C61.7465 16.0475 62.2515 15.1877 63.2205 15.1877C64.1894 15.1877 64.7078 16.0475 64.7078 17.3167C64.7078 18.5859 64.1894 19.4321 63.2205 19.4321ZM63.2341 21.0152C65.4858 21.0152 66.9597 19.4185 66.9597 17.3167C66.9597 15.2149 65.4858 13.6182 63.2341 13.6182C60.9959 13.6182 59.4946 15.2149 59.4946 17.3167C59.4946 19.4185 60.9959 21.0152 63.2341 21.0152Z" fill="#2F234F"/>
<path d="M67.6099 20.7962H69.8344V13.8086H67.6099V20.7962ZM67.6099 12.8396H69.8344V11.0381H67.6099V12.8396Z" fill="#2F234F"/>
<path d="M70.7993 23.1023H73.0239V20.0725H73.0512C73.4879 20.6594 74.1294 21.0142 75.0301 21.0142C76.8589 21.0142 78.0736 19.5676 78.0736 17.3021C78.0736 15.2003 76.9408 13.6035 75.0847 13.6035C74.1294 13.6035 73.447 14.0266 72.9693 14.6544H72.9284V13.8082H70.7993V23.1023ZM74.4569 19.2946C73.5016 19.2946 72.9557 18.5167 72.9557 17.3839C72.9557 16.2512 73.447 15.3914 74.416 15.3914C75.3713 15.3914 75.8217 16.1829 75.8217 17.3839C75.8217 18.5713 75.3031 19.2946 74.4569 19.2946Z" fill="#2F234F"/>
<path d="M81.6952 21.0142C83.524 21.0142 84.8751 20.2227 84.8751 18.6941C84.8751 16.9063 83.4284 16.5924 82.2001 16.3877C81.313 16.2239 80.5215 16.1556 80.5215 15.6643C80.5215 15.2276 80.9445 15.0229 81.4904 15.0229C82.1046 15.0229 82.5277 15.2139 82.6096 15.8417H84.6567C84.5475 14.4633 83.483 13.6035 81.5041 13.6035C79.8527 13.6035 78.4879 14.3678 78.4879 15.8417C78.4879 17.4795 79.7845 17.807 80.9991 18.0117C81.9272 18.1755 82.7733 18.2437 82.7733 18.8715C82.7733 19.3219 82.3503 19.5676 81.6815 19.5676C80.9445 19.5676 80.4805 19.2264 80.3986 18.5303H78.2969C78.3651 20.0725 79.648 21.0142 81.6952 21.0142Z" fill="#2F234F"/>
<path d="M87.897 21.001C88.866 21.001 89.4802 20.6188 89.9851 19.9364H90.0261V20.7962H92.1551V13.8086H89.9305V17.7118C89.9305 18.5444 89.4665 19.1176 88.7022 19.1176C87.9926 19.1176 87.6514 18.6945 87.6514 17.9302V13.8086H85.4404V18.3942C85.4404 19.9501 86.2866 21.001 87.897 21.001Z" fill="#2F234F"/>
<path d="M93.123 20.7959H95.3476V16.879C95.3476 16.0465 95.7571 15.4596 96.4531 15.4596C97.1218 15.4596 97.4357 15.8963 97.4357 16.647V20.7959H99.6603V16.879C99.6603 16.0465 100.056 15.4596 100.766 15.4596C101.435 15.4596 101.748 15.8963 101.748 16.647V20.7959H103.973V16.2512C103.973 14.6817 103.181 13.6035 101.598 13.6035C100.698 13.6035 99.9469 13.9857 99.401 14.8318H99.3737C99.0189 14.0812 98.3228 13.6035 97.4084 13.6035C96.3985 13.6035 95.7298 14.0812 95.293 14.8045H95.2521V13.8082H93.123V20.7959Z" fill="#2F234F"/>
<path fill-rule="evenodd" clip-rule="evenodd" d="M19.1597 27.0519C25.441 27.0519 30.5328 21.96 30.5328 15.6788C30.5328 9.39758 25.441 4.30566 19.1597 4.30566C12.8785 4.30566 7.78662 9.39758 7.78662 15.6788C7.78662 21.96 12.8785 27.0519 19.1597 27.0519ZM20.9152 13.0929C21.8846 12.1233 21.8846 10.5515 20.9152 9.58203C19.9457 8.61254 18.3738 8.61254 17.4043 9.58203C16.4349 10.5515 16.4349 12.1233 17.4043 13.0929L19.1597 14.8482L20.9152 13.0929ZM21.7457 17.4342C22.7152 18.4037 24.287 18.4037 25.2565 17.4342C26.2259 16.4647 26.2259 14.8929 25.2565 13.9234C24.287 12.9539 22.7152 12.9539 21.7457 13.9234L19.9903 15.6788L21.7457 17.4342ZM20.9152 21.7755C21.8846 20.806 21.8846 19.2342 20.9152 18.2647L19.1597 16.5093L17.4043 18.2647C16.4349 19.2342 16.4349 20.806 17.4043 21.7755C18.3738 22.745 19.9457 22.745 20.9152 21.7755ZM13.063 17.4342C12.0935 16.4647 12.0935 14.8929 13.063 13.9234C14.0325 12.9539 15.6043 12.9539 16.5738 13.9234L18.3292 15.6788L16.5738 17.4342C15.6043 18.4037 14.0325 18.4037 13.063 17.4342Z" fill="#7F57F1"/>
</g>
<defs>
<clipPath id="clip0_379_27487">
<rect width="96.6715" height="23.3149" fill="white" transform="translate(7.729 4.12207)"/>
</clipPath>
</defs>
</svg>
