<svg width="110" height="32" viewBox="0 0 110 32" fill="none" xmlns="http://www.w3.org/2000/svg">
<g clip-path="url(#clip0_379_27499)">
<path d="M35.6611 20.5853H42.4577V18.5381H38.0768V10.8271H35.6611V20.5853Z" fill="#3C2B1F"/>
<path d="M46.4846 19.2212C45.5156 19.2212 45.0107 18.375 45.0107 17.1058C45.0107 15.8365 45.5156 14.9767 46.4846 14.9767C47.4536 14.9767 47.9722 15.8365 47.9722 17.1058C47.9722 18.375 47.4536 19.2212 46.4846 19.2212ZM46.4983 20.8043C48.7501 20.8043 50.2241 19.2075 50.2241 17.1058C50.2241 15.004 48.7501 13.4072 46.4983 13.4072C44.26 13.4072 42.7588 15.004 42.7588 17.1058C42.7588 19.2075 44.26 20.8043 46.4983 20.8043Z" fill="#3C2B1F"/>
<path d="M54.1216 23.0016C55.1589 23.0016 56.0733 22.7696 56.6874 22.2236C57.247 21.7187 57.6155 20.9544 57.6155 19.9035V13.5983H55.4864V14.3489H55.4591C55.0497 13.762 54.4219 13.3936 53.4938 13.3936C51.7606 13.3936 50.5596 14.8402 50.5596 16.8874C50.5596 19.0301 52.0199 20.2038 53.5894 20.2038C54.4355 20.2038 54.9678 19.8626 55.3772 19.3986H55.4318V20.0946C55.4318 20.9408 55.036 21.4321 54.0943 21.4321C53.3574 21.4321 52.9889 21.1182 52.866 20.7497H50.7097C50.9281 22.21 52.1973 23.0016 54.1216 23.0016ZM54.108 18.5524C53.2755 18.5524 52.7296 17.87 52.7296 16.8191C52.7296 15.7546 53.2755 15.0722 54.108 15.0722C55.036 15.0722 55.5273 15.8638 55.5273 16.8055C55.5273 17.7881 55.077 18.5524 54.108 18.5524Z" fill="#3C2B1F"/>
<path d="M61.9934 19.2212C61.0244 19.2212 60.5195 18.375 60.5195 17.1058C60.5195 15.8365 61.0244 14.9767 61.9934 14.9767C62.9624 14.9767 63.481 15.8365 63.481 17.1058C63.481 18.375 62.9624 19.2212 61.9934 19.2212ZM62.0071 20.8043C64.2589 20.8043 65.7326 19.2075 65.7326 17.1058C65.7326 15.004 64.2589 13.4072 62.0071 13.4072C59.7688 13.4072 58.2676 15.004 58.2676 17.1058C58.2676 19.2075 59.7688 20.8043 62.0071 20.8043Z" fill="#3C2B1F"/>
<path d="M66.3823 20.5853H68.6069V13.5976H66.3823V20.5853ZM66.3823 12.6286H68.6069V10.8271H66.3823V12.6286Z" fill="#3C2B1F"/>
<path d="M69.5723 22.8924H71.7968V19.8626H71.8241C72.2609 20.4494 72.9023 20.8043 73.8031 20.8043C75.6319 20.8043 76.8465 19.3576 76.8465 17.0921C76.8465 14.9903 75.7137 13.3936 73.8577 13.3936C72.9023 13.3936 72.2199 13.8166 71.7423 14.4444H71.7013V13.5983H69.5723V22.8924ZM73.2299 19.0847C72.2745 19.0847 71.7286 18.3067 71.7286 17.174C71.7286 16.0412 72.2199 15.1814 73.1889 15.1814C74.1443 15.1814 74.5946 15.973 74.5946 17.174C74.5946 18.3613 74.076 19.0847 73.2299 19.0847Z" fill="#3C2B1F"/>
<path d="M80.4681 20.8043C82.2969 20.8043 83.648 20.0127 83.648 18.4842C83.648 16.6963 82.2014 16.3824 80.9731 16.1777C80.086 16.0139 79.2944 15.9457 79.2944 15.4544C79.2944 15.0176 79.7175 14.8129 80.2634 14.8129C80.8775 14.8129 81.3006 15.004 81.3825 15.6318H83.4297C83.3205 14.2534 82.256 13.3936 80.277 13.3936C78.6257 13.3936 77.2609 14.1578 77.2609 15.6318C77.2609 17.2695 78.5574 17.5971 79.7721 17.8018C80.7001 17.9655 81.5463 18.0338 81.5463 18.6616C81.5463 19.112 81.1232 19.3576 80.4545 19.3576C79.7175 19.3576 79.2535 19.0164 79.1716 18.3204H77.0698C77.1381 19.8626 78.421 20.8043 80.4681 20.8043Z" fill="#3C2B1F"/>
<path d="M86.67 20.79C87.639 20.79 88.2531 20.4079 88.7581 19.7255H88.799V20.5853H90.9281V13.5977H88.7035V17.5009C88.7035 18.3334 88.2395 18.9066 87.4752 18.9066C86.7655 18.9066 86.4243 18.4835 86.4243 17.7193V13.5977H84.2134V18.1833C84.2134 19.7391 85.0595 20.79 86.67 20.79Z" fill="#3C2B1F"/>
<path d="M91.896 20.5859H94.1206V16.669C94.1206 15.8365 94.53 15.2496 95.226 15.2496C95.8948 15.2496 96.2087 15.6864 96.2087 16.437V20.5859H98.4333V16.669C98.4333 15.8365 98.829 15.2496 99.5387 15.2496C100.207 15.2496 100.521 15.6864 100.521 16.437V20.5859H102.746V16.0412C102.746 14.4717 101.954 13.3936 100.371 13.3936C99.4705 13.3936 98.7199 13.7757 98.174 14.6219H98.1467C97.7918 13.8712 97.0958 13.3936 96.1814 13.3936C95.1715 13.3936 94.5027 13.8712 94.066 14.5946H94.025V13.5983H91.896V20.5859Z" fill="#3C2B1F"/>
<path d="M22.0888 5.24577L19.8523 4.64648L17.9676 11.6805L16.266 5.33014L14.0294 5.92943L15.8678 12.7905L11.2887 8.21138L9.6514 9.84864L14.6742 14.8715L8.41911 13.1954L7.81982 15.4319L14.6543 17.2632C14.576 16.9257 14.5346 16.5741 14.5346 16.2128C14.5346 13.6552 16.608 11.5818 19.1655 11.5818C21.7231 11.5818 23.7964 13.6552 23.7964 16.2128C23.7964 16.5717 23.7556 16.9212 23.6783 17.2568L29.8895 18.921L30.4888 16.6845L23.6272 14.8459L29.8827 13.1698L29.2833 10.9332L22.422 12.7717L27.0012 8.19258L25.3639 6.55531L20.4108 11.5084L22.0888 5.24577Z" fill="#F97316"/>
<path d="M23.6721 17.2832C23.4803 18.0939 23.0755 18.8222 22.52 19.4057L27.0198 23.9055L28.6571 22.2682L23.6721 17.2832Z" fill="#F97316"/>
<path d="M22.4746 19.4531C21.9124 20.0273 21.202 20.4558 20.4053 20.6766L22.0427 26.7874L24.2792 26.1881L22.4746 19.4531Z" fill="#F97316"/>
<path d="M20.3219 20.6978C19.9522 20.7928 19.5648 20.8433 19.1655 20.8433C18.7378 20.8433 18.3236 20.7853 17.9304 20.6768L16.2915 26.7931L18.528 27.3924L20.3219 20.6978Z" fill="#F97316"/>
<path d="M17.851 20.6546C17.0665 20.4228 16.3687 19.9889 15.818 19.4131L11.3071 23.9239L12.9444 25.5612L17.851 20.6546Z" fill="#F97316"/>
<path d="M15.7805 19.3735C15.2392 18.7941 14.845 18.0755 14.6573 17.2773L8.42578 18.9471L9.02506 21.1836L15.7805 19.3735Z" fill="#F97316"/>
</g>
<defs>
<clipPath id="clip0_379_27499">
<rect width="95.5342" height="23.3149" fill="white" transform="translate(7.63916 4.12207)"/>
</clipPath>
</defs>
</svg>
