<svg width="74" height="32" viewBox="0 0 74 32" fill="none" xmlns="http://www.w3.org/2000/svg">
<path d="M19.1094 15.9451C19.1094 15.0939 19.6086 14.501 20.3716 14.501C21.1346 14.501 21.6338 15.0939 21.6338 15.9451C21.6338 16.7867 21.1346 17.3892 20.3716 17.3892C19.6086 17.3892 19.1094 16.7867 19.1094 15.9451Z" fill="#152C4F"/>
<path d="M25.5618 14.4629C24.8365 14.4629 24.3467 15.0367 24.3467 15.8209C24.3467 16.6147 24.8459 17.2076 25.5618 17.2076C26.353 17.2076 26.8805 16.6051 26.8805 15.8209C26.8805 15.0463 26.353 14.4629 25.5618 14.4629Z" fill="#152C4F"/>
<path d="M29.7666 15.9451C29.7666 15.0939 30.2659 14.501 31.0289 14.501C31.7918 14.501 32.2911 15.0939 32.2911 15.9451C32.2911 16.7867 31.7918 17.3892 31.0289 17.3892C30.2659 17.3892 29.7666 16.7867 29.7666 15.9451Z" fill="#152C4F"/>
<path d="M37.4424 15.9548C37.4424 15.1037 37.951 14.5107 38.7517 14.5107C39.5524 14.5107 40.0327 15.1132 40.0327 15.9548C40.0327 16.7964 39.5524 17.3894 38.7517 17.3894C37.951 17.3894 37.4424 16.806 37.4424 15.9548Z" fill="#152C4F"/>
<path fill-rule="evenodd" clip-rule="evenodd" d="M36.963 25.9501C52.9679 25.9501 65.9424 21.3278 65.9424 15.6259C65.9424 9.92402 52.9679 5.30176 36.963 5.30176C20.958 5.30176 7.9834 9.92402 7.9834 15.6259C7.9834 21.3278 20.958 25.9501 36.963 25.9501ZM17.2469 18.3166V11.2013H16.0977V18.3166H17.2469ZM17.9502 15.9448C17.9502 17.3984 18.9111 18.4313 20.3711 18.4313C21.8311 18.4313 22.7919 17.3984 22.7919 15.9448C22.7919 14.4911 21.8311 13.4583 20.3711 13.4583C18.9111 13.4583 17.9502 14.4911 17.9502 15.9448ZM25.3638 18.2209C24.0545 18.2209 23.1784 17.2263 23.1784 15.8492C23.1784 14.4624 24.0733 13.4391 25.4015 13.4391C26.0891 13.4391 26.6731 13.7356 26.9557 14.2329L27.0216 13.5921H28.039V18.0775C28.039 19.6363 27.0782 20.6405 25.571 20.6405C24.2899 20.6405 23.3574 19.8372 23.2067 18.6035H24.3653C24.4312 19.2251 24.9211 19.579 25.6369 19.579C26.4376 19.579 26.918 19.0625 26.918 18.2878V17.4845C26.626 17.9436 26.042 18.2209 25.3638 18.2209ZM28.6077 15.9448C28.6077 17.3984 29.5685 18.4313 31.0285 18.4313C32.4886 18.4313 33.4494 17.3984 33.4494 15.9448C33.4494 14.4911 32.4886 13.4583 31.0285 13.4583C29.5685 13.4583 28.6077 14.4911 28.6077 15.9448ZM35.3807 11.9281C35.3807 12.3202 35.0699 12.6263 34.693 12.6263C34.3069 12.6263 34.0148 12.3202 34.0148 11.9281C34.0148 11.5456 34.3069 11.2395 34.693 11.2395C35.0699 11.2395 35.3807 11.5456 35.3807 11.9281ZM35.2676 13.5921V18.3166H34.1185V13.5921H35.2676ZM36.2744 20.5066H37.3954V17.6662C37.6874 18.154 38.3185 18.4409 39.0156 18.4409C40.3908 18.4409 41.2103 17.3698 41.1915 15.897C41.1632 14.4146 40.3249 13.4487 39.0061 13.4487C38.2997 13.4487 37.6591 13.7643 37.3766 14.3094L37.3106 13.5921H36.2744V20.5066ZM43.3484 18.4409C42.2368 18.4409 41.521 17.8384 41.4833 16.9011H42.5289C42.5289 17.3124 42.8209 17.5515 43.3295 17.5515C43.7534 17.5515 44.102 17.3793 44.102 17.0063C44.102 16.7386 43.9135 16.5951 43.6121 16.509L42.8021 16.2986C41.9072 16.0596 41.5586 15.5527 41.5586 14.9406C41.5586 14.0416 42.3028 13.4487 43.3013 13.4487C44.3091 13.4487 44.9968 14.0416 45.0345 14.9789H43.9889C43.9889 14.5677 43.7063 14.319 43.273 14.319C42.8586 14.319 42.6042 14.5485 42.6042 14.8737C42.6042 15.1797 42.8397 15.304 43.1882 15.3997L44.0078 15.6005C44.7708 15.7918 45.1852 16.2508 45.1852 16.9299C45.1852 17.8479 44.441 18.4409 43.3484 18.4409ZM47.569 18.4409C48.1999 18.4409 48.8027 18.1444 49.0759 17.7045L49.1515 18.3166H50.2252V13.5921H49.0759V16.0691C49.0759 16.9203 48.7557 17.3984 48.0022 17.3984C47.4183 17.3984 47.0132 17.1115 47.0132 16.1361V13.5921H45.8639V16.5473C45.8639 17.6758 46.4668 18.4409 47.569 18.4409ZM52.3888 15.6005V18.3166H51.2395V13.5921H52.2944L52.351 14.1277C52.6243 13.7069 53.1141 13.4487 53.6602 13.4487C54.4326 13.4487 54.9413 13.793 55.1957 14.3477C55.422 13.793 55.9777 13.4487 56.6842 13.4487C57.8146 13.4487 58.4077 14.1373 58.4077 15.2275V18.3166H57.2962V15.4953C57.2962 14.8259 56.9385 14.472 56.3828 14.472C55.8363 14.472 55.4031 14.8354 55.4031 15.6101V18.3166H54.2819V15.4953C54.2819 14.8259 53.9243 14.472 53.3777 14.472C52.8316 14.472 52.3888 14.8354 52.3888 15.6005Z" fill="#152C4F"/>
</svg>
