<svg width="112" height="32" viewBox="0 0 112 32" fill="none" xmlns="http://www.w3.org/2000/svg">
<g clip-path="url(#clip0_379_27475)">
<path d="M37.3096 20.1224H44.1061V18.0752H39.7252V10.3643H37.3096V20.1224Z" fill="#340E0E"/>
<path d="M48.1331 18.7573C47.1641 18.7573 46.6591 17.9111 46.6591 16.6419C46.6591 15.3727 47.1641 14.5128 48.1331 14.5128C49.102 14.5128 49.6207 15.3727 49.6207 16.6419C49.6207 17.9111 49.102 18.7573 48.1331 18.7573ZM48.1467 20.3404C50.3986 20.3404 51.8725 18.7436 51.8725 16.6419C51.8725 14.5401 50.3986 12.9434 48.1467 12.9434C45.9085 12.9434 44.4072 14.5401 44.4072 16.6419C44.4072 18.7436 45.9085 20.3404 48.1467 20.3404Z" fill="#340E0E"/>
<path d="M55.7706 22.5387C56.8078 22.5387 57.7222 22.3067 58.3363 21.7608C58.8959 21.2558 59.2644 20.4915 59.2644 19.4406V13.1354H57.1353V13.886H57.108C56.6986 13.2992 56.0708 12.9307 55.1428 12.9307C53.4095 12.9307 52.2085 14.3773 52.2085 16.4245C52.2085 18.5672 53.6688 19.7409 55.2383 19.7409C56.0845 19.7409 56.6167 19.3997 57.0261 18.9357H57.0807V19.6317C57.0807 20.4779 56.685 20.9692 55.7433 20.9692C55.0063 20.9692 54.6378 20.6553 54.515 20.2868H52.3586C52.577 21.7471 53.8462 22.5387 55.7706 22.5387ZM55.7569 18.0895C54.9244 18.0895 54.3785 17.4071 54.3785 16.3562C54.3785 15.2917 54.9244 14.6093 55.7569 14.6093C56.685 14.6093 57.1763 15.4009 57.1763 16.3426C57.1763 17.3252 56.7259 18.0895 55.7569 18.0895Z" fill="#340E0E"/>
<path d="M63.6418 18.7573C62.6729 18.7573 62.1679 17.9111 62.1679 16.6419C62.1679 15.3727 62.6729 14.5128 63.6418 14.5128C64.6108 14.5128 65.1295 15.3727 65.1295 16.6419C65.1295 17.9111 64.6108 18.7573 63.6418 18.7573ZM63.6555 20.3404C65.9074 20.3404 67.3813 18.7436 67.3813 16.6419C67.3813 14.5401 65.9074 12.9434 63.6555 12.9434C61.4173 12.9434 59.916 14.5401 59.916 16.6419C59.916 18.7436 61.4173 20.3404 63.6555 20.3404Z" fill="#340E0E"/>
<path d="M68.0308 20.1224H70.2553V13.1347H68.0308V20.1224ZM68.0308 12.1658H70.2553V10.3643H68.0308V12.1658Z" fill="#340E0E"/>
<path d="M71.2212 22.4295H73.4458V19.3997H73.4731C73.9098 19.9865 74.5512 20.3414 75.452 20.3414C77.2808 20.3414 78.4954 18.8947 78.4954 16.6292C78.4954 14.5274 77.3627 12.9307 75.5066 12.9307C74.5512 12.9307 73.8688 13.3537 73.3912 13.9815H73.3502V13.1354H71.2212V22.4295ZM74.8788 18.6218C73.9234 18.6218 73.3775 17.8439 73.3775 16.7111C73.3775 15.5783 73.8688 14.7185 74.8378 14.7185C75.7932 14.7185 76.2436 15.5101 76.2436 16.7111C76.2436 17.8984 75.7249 18.6218 74.8788 18.6218Z" fill="#340E0E"/>
<path d="M82.117 20.3414C83.9458 20.3414 85.297 19.5498 85.297 18.0213C85.297 16.2334 83.8503 15.9195 82.622 15.7148C81.7349 15.551 80.9433 15.4828 80.9433 14.9915C80.9433 14.5547 81.3664 14.35 81.9123 14.35C82.5265 14.35 82.9495 14.5411 83.0314 15.1689H85.0786C84.9694 13.7905 83.9049 12.9307 81.926 12.9307C80.2746 12.9307 78.9098 13.6949 78.9098 15.1689C78.9098 16.8066 80.2064 17.1342 81.421 17.3389C82.349 17.5027 83.1952 17.5709 83.1952 18.1987C83.1952 18.6491 82.7721 18.8947 82.1034 18.8947C81.3664 18.8947 80.9024 18.5535 80.8205 17.8575H78.7188C78.787 19.3997 80.0699 20.3414 82.117 20.3414Z" fill="#340E0E"/>
<path d="M88.3189 20.3271C89.2879 20.3271 89.902 19.945 90.407 19.2626H90.4479V20.1224H92.577V13.1348H90.3524V17.038C90.3524 17.8705 89.8884 18.4437 89.1241 18.4437C88.4144 18.4437 88.0732 18.0207 88.0732 17.2564V13.1348H85.8623V17.7204C85.8623 19.2762 86.7085 20.3271 88.3189 20.3271Z" fill="#340E0E"/>
<path d="M93.5444 20.123H95.769V16.2061C95.769 15.3736 96.1784 14.7868 96.8745 14.7868C97.5432 14.7868 97.8571 15.2235 97.8571 15.9741V20.123H100.082V16.2061C100.082 15.3736 100.477 14.7868 101.187 14.7868C101.856 14.7868 102.17 15.2235 102.17 15.9741V20.123H104.394V15.5783C104.394 14.0088 103.603 12.9307 102.02 12.9307C101.119 12.9307 100.368 13.3128 99.8224 14.159H99.7951C99.4403 13.4083 98.7442 12.9307 97.8298 12.9307C96.8199 12.9307 96.1511 13.4083 95.7144 14.1317H95.6735V13.1354H93.5444V20.123Z" fill="#340E0E"/>
<path fill-rule="evenodd" clip-rule="evenodd" d="M19.5811 26.9464C25.8623 26.9464 30.9543 21.8545 30.9543 15.5733C30.9543 9.29212 25.8623 4.2002 19.5811 4.2002C13.2999 4.2002 8.20801 9.29212 8.20801 15.5733C8.20801 21.8545 13.2999 26.9464 19.5811 26.9464ZM23.1291 9.49827C23.3018 8.88481 22.7065 8.52205 22.1628 8.9094L14.573 14.3163C13.9834 14.7364 14.0761 15.5733 14.7124 15.5733H16.711V15.5578H20.6061L17.4323 16.6777L16.0331 21.6484C15.8604 22.2618 16.4557 22.6246 16.9994 22.2372L24.5892 16.8303C25.1789 16.4102 25.0861 15.5733 24.4499 15.5733H21.4191L23.1291 9.49827Z" fill="#F15757"/>
</g>
<defs>
<clipPath id="clip0_379_27475">
<rect width="96.6715" height="23.3149" fill="white" transform="translate(7.81934 4.12207)"/>
</clipPath>
</defs>
</svg>
