<svg width="103" height="32" viewBox="0 0 103 32" fill="none" xmlns="http://www.w3.org/2000/svg">
<g clip-path="url(#clip0_379_27516)">
<path d="M36.7445 10.2539H34.7075V19.4453H40.3465V17.6443H36.7445V10.2539Z" fill="#243A5A"/>
<path d="M40.541 16.3279C40.541 18.2904 41.8576 19.5946 43.8449 19.5946C45.8198 19.5946 47.1364 18.2904 47.1364 16.3279C47.1364 14.3654 45.8198 13.0488 43.8449 13.0488C41.8576 13.0488 40.541 14.3654 40.541 16.3279ZM42.4662 16.3155C42.4662 15.384 43.0127 14.7629 43.8449 14.7629C44.6647 14.7629 45.2112 15.384 45.2112 16.3155C45.2112 17.2595 44.6647 17.8805 43.8449 17.8805C43.0127 17.8805 42.4662 17.2595 42.4662 16.3155Z" fill="#243A5A"/>
<path d="M47.4443 16.229C47.4443 18.1044 48.6615 19.3714 50.388 19.3714C51.2202 19.3714 51.9406 19.0733 52.3008 18.5889V19.4459C52.3008 20.3029 51.7667 20.8743 50.8227 20.8743C49.9781 20.8743 49.3943 20.4768 49.3571 19.7688H47.4194C47.5933 21.4705 48.9099 22.6131 50.7109 22.6131C52.8349 22.6131 54.1763 21.2345 54.1763 19.0484V13.2356H52.4498L52.3505 13.869C52.0027 13.3597 51.2699 13.0244 50.4253 13.0244C48.6863 13.0244 47.4443 14.3286 47.4443 16.229ZM49.3819 16.1793C49.3819 15.2849 49.9781 14.6888 50.7358 14.6888C51.6176 14.6888 52.2635 15.2725 52.2635 16.1793C52.2635 17.086 51.63 17.707 50.7482 17.707C49.9906 17.707 49.3819 17.086 49.3819 16.1793Z" fill="#243A5A"/>
<path d="M54.7339 16.3279C54.7339 18.2904 56.0505 19.5946 58.0378 19.5946C60.0127 19.5946 61.3293 18.2904 61.3293 16.3279C61.3293 14.3654 60.0127 13.0488 58.0378 13.0488C56.0505 13.0488 54.7339 14.3654 54.7339 16.3279ZM56.6591 16.3155C56.6591 15.384 57.2056 14.7629 58.0378 14.7629C58.8576 14.7629 59.4041 15.384 59.4041 16.3155C59.4041 17.2595 58.8576 17.8805 58.0378 17.8805C57.2056 17.8805 56.6591 17.2595 56.6591 16.3155Z" fill="#243A5A"/>
<path d="M62.9783 12.2664C63.5744 12.2664 64.0589 11.782 64.0589 11.1734C64.0589 10.5648 63.5744 10.0928 62.9783 10.0928C62.3696 10.0928 61.8853 10.5648 61.8853 11.1734C61.8853 11.782 62.3696 12.2664 62.9783 12.2664ZM62.0094 19.4456H63.9347V13.2352H62.0094V19.4456Z" fill="#243A5A"/>
<path d="M65.0557 22.4262H66.9436V18.8242C67.3036 19.2962 68.1236 19.6191 68.9805 19.6191C70.8309 19.6191 71.9489 18.2032 71.8994 16.2407C71.8494 14.2409 70.6945 13.0361 68.968 13.0361C68.086 13.0361 67.2541 13.4212 66.9061 13.9926L66.8066 13.2349H65.0557V22.4262ZM66.9806 16.34C66.9806 15.4085 67.6015 14.7875 68.496 14.7875C69.4025 14.7875 69.974 15.4209 69.974 16.34C69.974 17.2592 69.4025 17.8926 68.496 17.8926C67.6015 17.8926 66.9806 17.2716 66.9806 16.34Z" fill="#243A5A"/>
<path d="M72.103 17.4827C72.1525 18.7372 73.1465 19.6067 74.7115 19.6067C76.2144 19.6067 77.2579 18.8117 77.2579 17.5324C77.2579 16.6133 76.7114 16.0047 75.6924 15.7562L74.5875 15.483C74.19 15.3837 73.9415 15.2843 73.9415 14.9613C73.9415 14.6384 74.2019 14.4272 74.5875 14.4272C75.0219 14.4272 75.3074 14.7129 75.2955 15.1352H77.0219C76.9719 13.8435 75.9909 13.0361 74.6244 13.0361C73.246 13.0361 72.2151 13.8559 72.2151 15.098C72.2151 15.9301 72.6745 16.6133 73.904 16.9363L74.9969 17.2219C75.3199 17.3088 75.4564 17.4579 75.4564 17.669C75.4564 17.9796 75.1709 18.1783 74.6864 18.1783C74.1274 18.1783 73.8295 17.9175 73.8295 17.4827H72.103Z" fill="#243A5A"/>
<path d="M80.1853 19.6071C80.9433 19.6071 81.7008 19.2594 82.0858 18.7501L82.2103 19.4457H84.0112V13.2354H82.0983V16.4647C82.0983 17.3963 81.8253 17.9055 80.9434 17.9055C80.2598 17.9055 79.8129 17.595 79.8129 16.4399V13.2354H77.8999V17.1354C77.8999 18.6135 78.7199 19.6071 80.1853 19.6071Z" fill="#243A5A"/>
<path d="M87.0446 19.4459V16.0551C87.0446 15.0117 87.6036 14.7136 88.1501 14.7136C88.7585 14.7136 89.156 15.0862 89.156 15.8563V19.4459H91.044V16.0551C91.044 14.9993 91.5904 14.7012 92.1369 14.7012C92.7454 14.7012 93.1554 15.0738 93.1554 15.8563V19.4459H95.0189V15.3843C95.0189 13.9684 94.2734 13.0244 92.6709 13.0244C91.777 13.0244 91.044 13.4591 90.721 14.1298C90.3485 13.4591 89.7025 13.0244 88.6715 13.0244C87.9886 13.0244 87.3551 13.3349 86.9826 13.8317L86.9081 13.2356H85.1191V19.4459H87.0446Z" fill="#243A5A"/>
<path d="M7.41211 15.7794C7.41211 10.418 7.41211 7.73736 9.07766 6.0718C10.7432 4.40625 13.4239 4.40625 18.7852 4.40625C24.1466 4.40625 26.8272 4.40625 28.4928 6.0718C30.1583 7.73736 30.1583 10.418 30.1583 15.7794C30.1583 21.1407 30.1583 23.8214 28.4928 25.4869C26.8272 27.1525 24.1466 27.1525 18.7852 27.1525C13.4239 27.1525 10.7432 27.1525 9.07766 25.4869C7.41211 23.8214 7.41211 21.1407 7.41211 15.7794Z" fill="#243A5A"/>
<path d="M21.0598 19.1914C21.3739 19.1914 21.6342 19.4485 21.5718 19.7563C21.4615 20.2999 21.1937 20.8038 20.7956 21.2019C20.2625 21.7351 19.5393 22.0347 18.7852 22.0347C18.0311 22.0347 17.3079 21.7351 16.7747 21.2019C16.3766 20.8038 16.1088 20.2999 15.9986 19.7563C15.9361 19.4485 16.1965 19.1914 16.5105 19.1914H21.0598Z" fill="#2DF8BB"/>
<path d="M22.2553 14.515C21.9519 14.5963 21.7661 14.9136 21.9199 15.1874C22.0818 15.4756 22.3058 15.7272 22.5782 15.9224C23.0059 16.2289 23.5267 16.3776 24.0519 16.3432C24.577 16.3088 25.0739 16.0934 25.458 15.7336C25.8421 15.3739 26.0895 14.8921 26.1582 14.3703C26.2269 13.8486 26.1126 13.3192 25.8347 12.8723C25.5568 12.4254 25.1325 12.0887 24.6342 11.9196C24.1359 11.7504 23.5944 11.7592 23.1019 11.9446C22.7882 12.0627 22.5068 12.2477 22.2758 12.4841C22.0564 12.7088 22.1537 13.0635 22.4257 13.2205L22.7142 13.387C23.1529 13.6404 23.0664 14.2977 22.577 14.4288L22.2553 14.515Z" fill="#2DF8BB"/>
<path d="M15.315 14.515C15.6184 14.5963 15.8042 14.9136 15.6504 15.1874C15.4885 15.4756 15.2645 15.7272 14.9921 15.9224C14.5644 16.2289 14.0436 16.3776 13.5185 16.3432C12.9933 16.3088 12.4964 16.0934 12.1123 15.7336C11.7282 15.3739 11.4807 14.8921 11.412 14.3703C11.3434 13.8486 11.4577 13.3192 11.7356 12.8723C12.0135 12.4254 12.4377 12.0887 12.9361 11.9196C13.4344 11.7504 13.9759 11.7592 14.4685 11.9446C14.7821 12.0627 15.0635 12.2477 15.2945 12.4841C15.5139 12.7088 15.4166 13.0635 15.1446 13.2205L14.8561 13.387C14.4174 13.6404 14.5039 14.2977 14.9933 14.4288L15.315 14.515Z" fill="#2DF8BB"/>
</g>
<defs>
<clipPath id="clip0_379_27516">
<rect width="88.1416" height="22.7462" fill="white" transform="translate(7.41211 4.40625)"/>
</clipPath>
</defs>
</svg>
