<svg width="107" height="32" viewBox="0 0 107 32" fill="none" xmlns="http://www.w3.org/2000/svg">
<path d="M38.6113 19.7607H40.6124V10.3438H38.6113V19.7607Z" fill="#55AE36"/>
<path d="M44.7175 19.9701C46.8102 19.9701 48.1835 18.623 48.1835 16.2426C48.1835 13.9407 46.8494 12.502 44.7175 12.502C42.6249 12.502 41.2646 13.8491 41.2646 16.2426C41.2646 18.5576 42.5856 19.9701 44.7175 19.9701ZM44.7175 18.3483C43.8151 18.3483 43.3181 17.6028 43.3181 16.2426C43.3181 14.8693 43.802 14.1238 44.7175 14.1238C45.6331 14.1238 46.1301 14.8823 46.1301 16.2426C46.1301 17.6159 45.6461 18.3483 44.7175 18.3483Z" fill="#55AE36"/>
<path d="M51.4388 19.7739C52.1974 19.7739 52.8252 19.46 53.2699 18.8453V20.0224C53.2699 21.0034 52.786 21.3303 52.0666 21.3303C51.3734 21.3303 50.8372 20.9903 50.7587 20.3625H48.7576C49.0061 22.0758 50.3009 22.8606 52.0928 22.8606C53.9369 22.8606 55.271 21.8797 55.271 19.9963V12.7243H53.2699V13.3783C52.8383 12.8028 52.2236 12.502 51.4388 12.502C49.6862 12.502 48.5483 13.8099 48.5483 16.151C48.5483 18.3875 49.6601 19.7739 51.4388 19.7739ZM51.9227 18.1521C51.0595 18.1521 50.6018 17.4328 50.6018 16.151C50.6018 14.83 51.0595 14.1238 51.9227 14.1238C52.799 14.1238 53.2699 14.8431 53.2699 16.1379C53.2699 17.4458 52.8121 18.1521 51.9227 18.1521Z" fill="#55AE36"/>
<path d="M59.3874 19.9701C61.4801 19.9701 62.8534 18.623 62.8534 16.2426C62.8534 13.9407 61.5193 12.502 59.3874 12.502C57.2948 12.502 55.9346 13.8491 55.9346 16.2426C55.9346 18.5576 57.2556 19.9701 59.3874 19.9701ZM59.3874 18.3483C58.485 18.3483 57.988 17.6028 57.988 16.2426C57.988 14.8693 58.4719 14.1238 59.3874 14.1238C60.303 14.1238 60.8 14.8823 60.8 16.2426C60.8 17.6159 60.3161 18.3483 59.3874 18.3483Z" fill="#55AE36"/>
<path d="M63.5195 12.0179H65.5209V10.3438H63.5195V12.0179ZM63.5195 19.7607H65.5209V12.7241H63.5195V19.7607Z" fill="#55AE36"/>
<path d="M68.4742 22.6513V19.0546C68.8928 19.6562 69.4944 19.9701 70.2399 19.9701C72.0318 19.9701 73.1958 18.623 73.1958 16.2295C73.1958 13.9276 72.0579 12.502 70.2399 12.502C69.5075 12.502 68.9059 12.842 68.4742 13.4567V12.7243H66.4731V22.6513H68.4742ZM69.8214 14.1238C70.6715 14.1238 71.1424 14.8693 71.1424 16.2295C71.1424 17.6028 70.6846 18.3483 69.8214 18.3483C68.9451 18.3483 68.4742 17.5897 68.4742 16.2295C68.4742 14.8693 68.932 14.1238 69.8214 14.1238Z" fill="#55AE36"/>
<path d="M75.5991 14.6731C75.5991 14.2938 75.9392 14.0322 76.4623 14.0322C77.1686 14.0322 77.5871 14.333 77.7048 15.0524H79.6929C79.4967 13.2736 78.2149 12.502 76.5277 12.502C74.6443 12.502 73.6896 13.6006 73.6896 14.7777C73.6896 17.6028 77.9533 16.3864 77.9533 17.7467C77.9533 18.1783 77.6002 18.4529 76.8939 18.4529C76.1484 18.4529 75.6122 18.0998 75.5206 17.4458H73.5195C73.7811 19.1854 75.0629 19.9701 76.8416 19.9701C78.6727 19.9701 79.9544 19.0153 79.9544 17.629C79.9544 14.8431 75.5991 16.0595 75.5991 14.6731Z" fill="#55AE36"/>
<path d="M84.8845 16.766C84.8845 17.6685 84.3875 18.3486 83.6158 18.3486C82.9095 18.3486 82.5695 17.9039 82.5695 17.0015V12.7246H80.5684V17.4069C80.5684 19.1595 81.5493 19.9704 82.8834 19.9704C83.7335 19.9704 84.4267 19.6042 84.8845 18.8195V19.7612H86.8856V12.7246H84.8845V16.766Z" fill="#55AE36"/>
<path d="M87.8525 19.7608H89.8536V15.7194C89.8536 14.817 90.3114 14.1238 91.0046 14.1238C91.6455 14.1238 91.9594 14.5815 91.9594 15.4709V19.7608H93.9474V15.7194C93.9474 14.817 94.4182 14.1238 95.1114 14.1238C95.7523 14.1238 96.0531 14.5815 96.0531 15.4709V19.7608H98.0542V15.0655C98.0542 13.3259 97.0864 12.502 95.7785 12.502C94.9022 12.502 94.1567 12.8682 93.6727 13.666C93.3196 12.8812 92.6133 12.502 91.7763 12.502C90.9654 12.502 90.2983 12.8551 89.8536 13.6137V12.7243H87.8525V19.7608Z" fill="#55AE36"/>
<path d="M31.0222 22.6341C33.1899 20.6984 34.5192 18.0861 34.5192 15.2117C34.5192 9.24455 28.7908 4.40723 21.7244 4.40723C14.6581 4.40723 8.92969 9.24455 8.92969 15.2117C8.92969 21.1788 14.6581 26.0161 21.7244 26.0161C23.7291 26.0161 25.6262 25.6268 27.3152 24.9328C29.2994 26.1575 31.7303 27.0379 34.4151 26.8522C32.9967 26.4917 31.7767 25.0312 31.0222 22.6341Z" fill="#B6EFA2"/>
<path d="M31.1074 15.2112C31.1074 19.608 26.9066 23.1724 21.7246 23.1724C16.5426 23.1724 12.3418 19.608 12.3418 15.2112C12.3418 10.8143 16.5426 7.25 21.7246 7.25C26.9066 7.25 31.1074 10.8143 31.1074 15.2112Z" fill="#88E169"/>
<path d="M27.6952 15.2117C27.6952 18.0382 25.0219 20.3296 21.7243 20.3296C18.4267 20.3296 15.7534 18.0382 15.7534 15.2117C15.7534 12.3851 18.4267 10.0938 21.7243 10.0938C25.0219 10.0938 27.6952 12.3851 27.6952 15.2117Z" fill="#55AE36"/>
</svg>
