<svg width="203" height="49" viewBox="0 0 203 49" fill="none" xmlns="http://www.w3.org/2000/svg">
<path fill-rule="evenodd" clip-rule="evenodd" d="M33.379 28.2055L32.9488 27.0582C32.3751 25.6241 32.2317 25.7675 33.5224 26.628L37.5379 29.3528C39.8325 30.9303 39.4023 30.5001 36.8209 32.0776L31.6581 35.3761C30.3674 36.2366 30.3674 36.38 31.0844 34.9459L31.8015 33.2249C28.3596 33.3683 24.7743 33.3683 21.189 32.9381C25.3479 33.7986 26.6386 34.0854 30.5108 34.2288L29.6503 36.6668C86.1545 13.2907 48.1504 16.1589 30.5108 20.8915L31.2278 22.0388C31.9449 23.3295 32.0883 23.1861 30.6542 22.6125L26.2084 20.6047C23.627 19.4574 24.2007 19.8876 26.4952 17.8799L30.941 13.7209C32.0883 12.7171 31.9449 12.5736 31.5146 14.1512L31.0844 15.8721C34.3829 15.1551 38.1116 14.438 41.5535 14.2946C37.3945 14.1512 35.9604 14.1512 32.0883 14.7248L32.6619 12C5.84396 24.19 -6.0592 34.0854 33.379 28.2055Z" fill="#06186E"/>
<path d="M82.9232 28.061H78.2672L77.0672 30.333H75.1632L81.1152 19.197H83.2272L85.2432 30.333H83.3232L82.9232 28.061ZM82.6832 26.637L81.7712 21.405L79.0192 26.637H82.6832ZM92.7514 19.213L91.5034 26.269C91.4608 26.4823 91.4394 26.701 91.4394 26.925C91.4394 27.5543 91.6208 28.029 91.9834 28.349C92.3568 28.6583 92.8848 28.813 93.5674 28.813C94.3674 28.813 95.0234 28.5997 95.5354 28.173C96.0581 27.7463 96.3941 27.1117 96.5434 26.269L97.7914 19.213H99.6154L98.3674 26.269C98.2074 27.1757 97.8714 27.9437 97.3594 28.573C96.8581 29.2023 96.2501 29.6717 95.5354 29.981C94.8208 30.2903 94.0634 30.445 93.2634 30.445C92.1754 30.445 91.2901 30.1677 90.6074 29.613C89.9354 29.0583 89.5994 28.253 89.5994 27.197C89.5994 26.845 89.6261 26.5357 89.6794 26.269L90.9274 19.213H92.7514ZM111.174 19.213L110.918 20.637H107.958L106.246 30.333H104.422L106.134 20.637H103.158L103.414 19.213H111.174ZM118.174 30.445C117.235 30.445 116.408 30.2477 115.694 29.853C114.979 29.4583 114.424 28.9037 114.03 28.189C113.635 27.4743 113.438 26.6637 113.438 25.757C113.438 24.4877 113.72 23.3463 114.286 22.333C114.862 21.309 115.651 20.509 116.654 19.933C117.667 19.357 118.798 19.069 120.046 19.069C120.995 19.069 121.827 19.2663 122.542 19.661C123.256 20.0557 123.811 20.6103 124.206 21.325C124.6 22.029 124.798 22.8343 124.798 23.741C124.798 25.0103 124.51 26.157 123.934 27.181C123.368 28.205 122.579 29.005 121.566 29.581C120.563 30.157 119.432 30.445 118.174 30.445ZM118.43 28.797C119.304 28.797 120.078 28.573 120.75 28.125C121.432 27.677 121.96 27.0797 122.334 26.333C122.718 25.5757 122.91 24.7543 122.91 23.869C122.91 22.8983 122.632 22.1357 122.078 21.581C121.534 21.0157 120.771 20.733 119.79 20.733C118.915 20.733 118.136 20.957 117.454 21.405C116.782 21.8423 116.259 22.4343 115.886 23.181C115.512 23.9277 115.326 24.749 115.326 25.645C115.326 26.6157 115.598 27.3837 116.142 27.949C116.696 28.5143 117.459 28.797 118.43 28.797Z" fill="#255AE8"/>
<path d="M138.253 30.445C137.506 30.445 136.834 30.317 136.237 30.061C135.639 29.7943 135.17 29.421 134.829 28.941C134.487 28.461 134.317 27.901 134.317 27.261H136.269C136.311 27.741 136.498 28.1357 136.829 28.445C137.17 28.7543 137.645 28.909 138.253 28.909C138.882 28.909 139.373 28.7597 139.725 28.461C140.077 28.1517 140.253 27.757 140.253 27.277C140.253 26.9037 140.141 26.5997 139.917 26.365C139.703 26.1303 139.431 25.949 139.101 25.821C138.781 25.693 138.333 25.5543 137.757 25.405C137.031 25.213 136.439 25.021 135.981 24.829C135.533 24.6263 135.149 24.317 134.829 23.901C134.509 23.485 134.349 22.9303 134.349 22.237C134.349 21.597 134.509 21.037 134.829 20.557C135.149 20.077 135.597 19.709 136.173 19.453C136.749 19.197 137.415 19.069 138.173 19.069C139.25 19.069 140.13 19.341 140.813 19.885C141.506 20.4183 141.89 21.1543 141.965 22.093H139.949C139.917 21.6877 139.725 21.341 139.373 21.053C139.021 20.765 138.557 20.621 137.981 20.621C137.458 20.621 137.031 20.7543 136.701 21.021C136.37 21.2877 136.205 21.6717 136.205 22.173C136.205 22.5143 136.306 22.797 136.509 23.021C136.722 23.2343 136.989 23.405 137.309 23.533C137.629 23.661 138.066 23.7997 138.621 23.949C139.357 24.1517 139.954 24.3543 140.413 24.557C140.882 24.7597 141.277 25.0743 141.597 25.501C141.927 25.917 142.093 26.477 142.093 27.181C142.093 27.7463 141.938 28.2797 141.629 28.781C141.33 29.2823 140.887 29.6877 140.301 29.997C139.725 30.2957 139.042 30.445 138.253 30.445ZM148.053 19.213V26.301C148.053 27.1437 148.272 27.7783 148.709 28.205C149.157 28.6317 149.776 28.845 150.565 28.845C151.365 28.845 151.984 28.6317 152.421 28.205C152.869 27.7783 153.093 27.1437 153.093 26.301V19.213H154.917V26.269C154.917 27.1757 154.72 27.9437 154.325 28.573C153.93 29.2023 153.402 29.6717 152.741 29.981C152.08 30.2903 151.349 30.445 150.549 30.445C149.749 30.445 149.018 30.2903 148.357 29.981C147.706 29.6717 147.189 29.2023 146.805 28.573C146.421 27.9437 146.229 27.1757 146.229 26.269V19.213H148.053ZM165.244 24.621C165.841 24.7277 166.348 25.0423 166.764 25.565C167.18 26.0877 167.388 26.6797 167.388 27.341C167.388 27.9063 167.238 28.4183 166.94 28.877C166.652 29.325 166.23 29.6823 165.676 29.949C165.121 30.205 164.476 30.333 163.74 30.333H159.292V19.213H163.532C164.289 19.213 164.94 19.341 165.484 19.597C166.028 19.853 166.438 20.1997 166.716 20.637C166.993 21.0637 167.132 21.5437 167.132 22.077C167.132 22.717 166.961 23.2503 166.62 23.677C166.278 24.1037 165.82 24.4183 165.244 24.621ZM161.116 23.885H163.372C163.969 23.885 164.433 23.7517 164.764 23.485C165.105 23.2077 165.276 22.813 165.276 22.301C165.276 21.7997 165.105 21.4103 164.764 21.133C164.433 20.845 163.969 20.701 163.372 20.701H161.116V23.885ZM163.58 28.845C164.198 28.845 164.684 28.6957 165.036 28.397C165.388 28.0983 165.564 27.6823 165.564 27.149C165.564 26.605 165.377 26.173 165.004 25.853C164.63 25.533 164.134 25.373 163.516 25.373H161.116V28.845H163.58ZM183.082 19.213V30.333H181.258V22.717L177.866 30.333H176.602L173.194 22.717V30.333H171.37V19.213H173.338L177.242 27.933L181.13 19.213H183.082ZM189.303 19.213V30.333H187.479V19.213H189.303ZM200.882 19.213V20.701H197.922V30.333H196.098V20.701H193.122V19.213H200.882Z" fill="#06186E"/>
</svg>
